# xmcd
#
# Track frame offsets: 
#        150
#        20073
#        38597
#        59745
#        77529
#        93957
#        100184
#        118630
#        142302
#        160299
#        183644
#        203194
#        216437
#        239570
#        263684
#
# Disc length: 3802 seconds
#
# Revision: 0
# Processed by: cddbd v1.5.2PL0 Copyright (c) Steve Scherf et al.
# Submitted via: ExactAudioCopyFreeDBPlugin 1.0
#
DISCID=dd0ed80f
DTITLE=Boogie Project - Fasten your seatbelts
DYEAR=2001
DGENRE=Rock and Roll
TTITLE0=Chicago Breakdown
TTITLE1=Everyday I have the Blues
TTITLE2=Low down dog
TTITLE3=Blues for H.
TTITLE4=Boogie mood
TTITLE5=Dark was the night
TTITLE6=Dust my broom
TTITLE7=Honky Tonk Train Blues
TTITLE8=Stormy monday
TTITLE9=Rock house
TTITLE10=DK Boogie
TTITLE11=Baby what you want me to do
TTITLE12=Mr. Pinetop´s job
TTITLE13=Down home Blues
TTITLE14=Whole lotta shakin´ going on
EXTD=
EXTT0=
EXTT1=
EXTT2=
EXTT3=
EXTT4=
EXTT5=
EXTT6=
EXTT7=
EXTT8=
EXTT9=
EXTT10=
EXTT11=
EXTT12=
EXTT13=
EXTT14=
PLAYORDER=
